<?xml version="1.0" encoding="utf-8" standalone="no"?>
<!DOCTYPE svg PUBLIC "-//W3C//DTD SVG 1.1//EN"
  "http://www.w3.org/Graphics/SVG/1.1/DTD/svg11.dtd">
<svg xmlns:xlink="http://www.w3.org/1999/xlink" width="360pt" height="288pt" viewBox="0 0 360 288" xmlns="http://www.w3.org/2000/svg" version="1.1">
 <metadata>
  <rdf:RDF xmlns:dc="http://purl.org/dc/elements/1.1/" xmlns:cc="http://creativecommons.org/ns#" xmlns:rdf="http://www.w3.org/1999/02/22-rdf-syntax-ns#">
   <cc:Work>
    <dc:type rdf:resource="http://purl.org/dc/dcmitype/StillImage"/>
    <dc:date>2026-08-01T22:55:06.512398</dc:date>
    <dc:format>image/svg+xml</dc:format>
    <dc:creator>
     <cc:Agent>
      <dc:title>Matplotlib v3.10.9, https://matplotlib.org/</dc:title>
     </cc:Agent>
    </dc:creator>
   </cc:Work>
  </rdf:RDF>
 </metadata>
 <defs>
  <style type="text/css">*{stroke-linejoin: round; stroke-linecap: butt}</style>
 </defs>
 <g id="figure_1">
  <g id="patch_1">
   <path d="M 0 288 
L 360 288 
L 360 0 
L 0 0 
z
" style="fill: #ffffff"/>
  </g>
  <g id="axes_1">
   <g id="patch_2">
    <path d="M 47.72 246.04 
L 349.2 246.04 
L 349.2 26.88 
L 47.72 26.88 
z
" style="fill: #ffffff"/>
   </g>
   <g id="matplotlib.axis_1">
    <g id="xtick_1">
     <g id="line2d_1">
      <defs>
       <path id="m25a3818e22" d="M 0 0 
L 0 3.5 
" style="stroke: #000000; stroke-width: 0.8"/>
      </defs>
      <g>
       <use xlink:href="#m25a3818e22" x="61.423636" y="246.04" style="stroke: #000000; stroke-width: 0.8"/>
      </g>
     </g>
     <g id="text_1">
      <!-- 0.0 -->
      <g transform="translate(53.472074 260.638438) scale(0.1 -0.1)">
       <defs>
        <path id="DejaVuSans-30" d="M 2034 4250 
Q 1547 4250 1301 3770 
Q 1056 3291 1056 2328 
Q 1056 1369 1301 889 
Q 1547 409 2034 409 
Q 2525 409 2770 889 
Q 3016 1369 3016 2328 
Q 3016 3291 2770 3770 
Q 2525 4250 2034 4250 
z
M 2034 4750 
Q 2819 4750 3233 4129 
Q 3647 3509 3647 2328 
Q 3647 1150 3233 529 
Q 2819 -91 2034 -91 
Q 1250 -91 836 529 
Q 422 1150 422 2328 
Q 422 3509 836 4129 
Q 1250 4750 2034 4750 
z
" transform="scale(0.015625)"/>
        <path id="DejaVuSans-2e" d="M 684 794 
L 1344 794 
L 1344 0 
L 684 0 
L 684 794 
z
" transform="scale(0.015625)"/>
       </defs>
       <use xlink:href="#DejaVuSans-30"/>
       <use xlink:href="#DejaVuSans-2e" transform="translate(63.623047 0)"/>
       <use xlink:href="#DejaVuSans-30" transform="translate(95.410156 0)"/>
      </g>
     </g>
    </g>
    <g id="xtick_2">
     <g id="line2d_2">
      <g>
       <use xlink:href="#m25a3818e22" x="116.238182" y="246.04" style="stroke: #000000; stroke-width: 0.8"/>
      </g>
     </g>
     <g id="text_2">
      <!-- 0.2 -->
      <g transform="translate(108.286619 260.638438) scale(0.1 -0.1)">
       <defs>
        <path id="DejaVuSans-32" d="M 1228 531 
L 3431 531 
L 3431 0 
L 469 0 
L 469 531 
Q 828 903 1448 1529 
Q 2069 2156 2228 2338 
Q 2531 2678 2651 2914 
Q 2772 3150 2772 3378 
Q 2772 3750 2511 3984 
Q 2250 4219 1831 4219 
Q 1534 4219 1204 4116 
Q 875 4013 500 3803 
L 500 4441 
Q 881 4594 1212 4672 
Q 1544 4750 1819 4750 
Q 2544 4750 2975 4387 
Q 3406 4025 3406 3419 
Q 3406 3131 3298 2873 
Q 3191 2616 2906 2266 
Q 2828 2175 2409 1742 
Q 1991 1309 1228 531 
z
" transform="scale(0.015625)"/>
       </defs>
       <use xlink:href="#DejaVuSans-30"/>
       <use xlink:href="#DejaVuSans-2e" transform="translate(63.623047 0)"/>
       <use xlink:href="#DejaVuSans-32" transform="translate(95.410156 0)"/>
      </g>
     </g>
    </g>
    <g id="xtick_3">
     <g id="line2d_3">
      <g>
       <use xlink:href="#m25a3818e22" x="171.052727" y="246.04" style="stroke: #000000; stroke-width: 0.8"/>
      </g>
     </g>
     <g id="text_3">
      <!-- 0.4 -->
      <g transform="translate(163.101165 260.638438) scale(0.1 -0.1)">
       <defs>
        <path id="DejaVuSans-34" d="M 2419 4116 
L 825 1625 
L 2419 1625 
L 2419 4116 
z
M 2253 4666 
L 3047 4666 
L 3047 1625 
L 3713 1625 
L 3713 1100 
L 3047 1100 
L 3047 0 
L 2419 0 
L 2419 1100 
L 313 1100 
L 313 1709 
L 2253 4666 
z
" transform="scale(0.015625)"/>
       </defs>
       <use xlink:href="#DejaVuSans-30"/>
       <use xlink:href="#DejaVuSans-2e" transform="translate(63.623047 0)"/>
       <use xlink:href="#DejaVuSans-34" transform="translate(95.410156 0)"/>
      </g>
     </g>
    </g>
    <g id="xtick_4">
     <g id="line2d_4">
      <g>
       <use xlink:href="#m25a3818e22" x="225.867273" y="246.04" style="stroke: #000000; stroke-width: 0.8"/>
      </g>
     </g>
     <g id="text_4">
      <!-- 0.6 -->
      <g transform="translate(217.91571 260.638438) scale(0.1 -0.1)">
       <defs>
        <path id="DejaVuSans-36" d="M 2113 2584 
Q 1688 2584 1439 2293 
Q 1191 2003 1191 1497 
Q 1191 994 1439 701 
Q 1688 409 2113 409 
Q 2538 409 2786 701 
Q 3034 994 3034 1497 
Q 3034 2003 2786 2293 
Q 2538 2584 2113 2584 
z
M 3366 4563 
L 3366 3988 
Q 3128 4100 2886 4159 
Q 2644 4219 2406 4219 
Q 1781 4219 1451 3797 
Q 1122 3375 1075 2522 
Q 1259 2794 1537 2939 
Q 1816 3084 2150 3084 
Q 2853 3084 3261 2657 
Q 3669 2231 3669 1497 
Q 3669 778 3244 343 
Q 2819 -91 2113 -91 
Q 1303 -91 875 529 
Q 447 1150 447 2328 
Q 447 3434 972 4092 
Q 1497 4750 2381 4750 
Q 2619 4750 2861 4703 
Q 3103 4656 3366 4563 
z
" transform="scale(0.015625)"/>
       </defs>
       <use xlink:href="#DejaVuSans-30"/>
       <use xlink:href="#DejaVuSans-2e" transform="translate(63.623047 0)"/>
       <use xlink:href="#DejaVuSans-36" transform="translate(95.410156 0)"/>
      </g>
     </g>
    </g>
    <g id="xtick_5">
     <g id="line2d_5">
      <g>
       <use xlink:href="#m25a3818e22" x="280.681818" y="246.04" style="stroke: #000000; stroke-width: 0.8"/>
      </g>
     </g>
     <g id="text_5">
      <!-- 0.8 -->
      <g transform="translate(272.730256 260.638438) scale(0.1 -0.1)">
       <defs>
        <path id="DejaVuSans-38" d="M 2034 2216 
Q 1584 2216 1326 1975 
Q 1069 1734 1069 1313 
Q 1069 891 1326 650 
Q 1584 409 2034 409 
Q 2484 409 2743 651 
Q 3003 894 3003 1313 
Q 3003 1734 2745 1975 
Q 2488 2216 2034 2216 
z
M 1403 2484 
Q 997 2584 770 2862 
Q 544 3141 544 3541 
Q 544 4100 942 4425 
Q 1341 4750 2034 4750 
Q 2731 4750 3128 4425 
Q 3525 4100 3525 3541 
Q 3525 3141 3298 2862 
Q 3072 2584 2669 2484 
Q 3125 2378 3379 2068 
Q 3634 1759 3634 1313 
Q 3634 634 3220 271 
Q 2806 -91 2034 -91 
Q 1263 -91 848 271 
Q 434 634 434 1313 
Q 434 1759 690 2068 
Q 947 2378 1403 2484 
z
M 1172 3481 
Q 1172 3119 1398 2916 
Q 1625 2713 2034 2713 
Q 2441 2713 2670 2916 
Q 2900 3119 2900 3481 
Q 2900 3844 2670 4047 
Q 2441 4250 2034 4250 
Q 1625 4250 1398 4047 
Q 1172 3844 1172 3481 
z
" transform="scale(0.015625)"/>
       </defs>
       <use xlink:href="#DejaVuSans-30"/>
       <use xlink:href="#DejaVuSans-2e" transform="translate(63.623047 0)"/>
       <use xlink:href="#DejaVuSans-38" transform="translate(95.410156 0)"/>
      </g>
     </g>
    </g>
    <g id="xtick_6">
     <g id="line2d_6">
      <g>
       <use xlink:href="#m25a3818e22" x="335.496364" y="246.04" style="stroke: #000000; stroke-width: 0.8"/>
      </g>
     </g>
     <g id="text_6">
      <!-- 1.0 -->
      <g transform="translate(327.544801 260.638438) scale(0.1 -0.1)">
       <defs>
        <path id="DejaVuSans-31" d="M 794 531 
L 1825 531 
L 1825 4091 
L 703 3866 
L 703 4441 
L 1819 4666 
L 2450 4666 
L 2450 531 
L 3481 531 
L 3481 0 
L 794 0 
L 794 531 
z
" transform="scale(0.015625)"/>
       </defs>
       <use xlink:href="#DejaVuSans-31"/>
       <use xlink:href="#DejaVuSans-2e" transform="translate(63.623047 0)"/>
       <use xlink:href="#DejaVuSans-30" transform="translate(95.410156 0)"/>
      </g>
     </g>
    </g>
    <g id="text_7">
     <!-- False Positive Rate -->
     <g transform="translate(151.993594 274.316562) scale(0.1 -0.1)">
      <defs>
       <path id="DejaVuSans-46" d="M 628 4666 
L 3309 4666 
L 3309 4134 
L 1259 4134 
L 1259 2759 
L 3109 2759 
L 3109 2228 
L 1259 2228 
L 1259 0 
L 628 0 
L 628 4666 
z
" transform="scale(0.015625)"/>
       <path id="DejaVuSans-61" d="M 2194 1759 
Q 1497 1759 1228 1600 
Q 959 1441 959 1056 
Q 959 750 1161 570 
Q 1363 391 1709 391 
Q 2188 391 2477 730 
Q 2766 1069 2766 1631 
L 2766 1759 
L 2194 1759 
z
M 3341 1997 
L 3341 0 
L 2766 0 
L 2766 531 
Q 2569 213 2275 61 
Q 1981 -91 1556 -91 
Q 1019 -91 701 211 
Q 384 513 384 1019 
Q 384 1609 779 1909 
Q 1175 2209 1959 2209 
L 2766 2209 
L 2766 2266 
Q 2766 2663 2505 2880 
Q 2244 3097 1772 3097 
Q 1472 3097 1187 3025 
Q 903 2953 641 2809 
L 641 3341 
Q 956 3463 1253 3523 
Q 1550 3584 1831 3584 
Q 2591 3584 2966 3190 
Q 3341 2797 3341 1997 
z
" transform="scale(0.015625)"/>
       <path id="DejaVuSans-6c" d="M 603 4863 
L 1178 4863 
L 1178 0 
L 603 0 
L 603 4863 
z
" transform="scale(0.015625)"/>
       <path id="DejaVuSans-73" d="M 2834 3397 
L 2834 2853 
Q 2591 2978 2328 3040 
Q 2066 3103 1784 3103 
Q 1356 3103 1142 2972 
Q 928 2841 928 2578 
Q 928 2378 1081 2264 
Q 1234 2150 1697 2047 
L 1894 2003 
Q 2506 1872 2764 1633 
Q 3022 1394 3022 966 
Q 3022 478 2636 193 
Q 2250 -91 1575 -91 
Q 1294 -91 989 -36 
Q 684 19 347 128 
L 347 722 
Q 666 556 975 473 
Q 1284 391 1588 391 
Q 1994 391 2212 530 
Q 2431 669 2431 922 
Q 2431 1156 2273 1281 
Q 2116 1406 1581 1522 
L 1381 1569 
Q 847 1681 609 1914 
Q 372 2147 372 2553 
Q 372 3047 722 3315 
Q 1072 3584 1716 3584 
Q 2034 3584 2315 3537 
Q 2597 3491 2834 3397 
z
" transform="scale(0.015625)"/>
       <path id="DejaVuSans-65" d="M 3597 1894 
L 3597 1613 
L 953 1613 
Q 991 1019 1311 708 
Q 1631 397 2203 397 
Q 2534 397 2845 478 
Q 3156 559 3463 722 
L 3463 178 
Q 3153 47 2828 -22 
Q 2503 -91 2169 -91 
Q 1331 -91 842 396 
Q 353 884 353 1716 
Q 353 2575 817 3079 
Q 1281 3584 2069 3584 
Q 2775 3584 3186 3129 
Q 3597 2675 3597 1894 
z
M 3022 2063 
Q 3016 2534 2758 2815 
Q 2500 3097 2075 3097 
Q 1594 3097 1305 2825 
Q 1016 2553 972 2059 
L 3022 2063 
z
" transform="scale(0.015625)"/>
       <path id="DejaVuSans-20" transform="scale(0.015625)"/>
       <path id="DejaVuSans-50" d="M 1259 4147 
L 1259 2394 
L 2053 2394 
Q 2494 2394 2734 2622 
Q 2975 2850 2975 3272 
Q 2975 3691 2734 3919 
Q 2494 4147 2053 4147 
L 1259 4147 
z
M 628 4666 
L 2053 4666 
Q 2838 4666 3239 4311 
Q 3641 3956 3641 3272 
Q 3641 2581 3239 2228 
Q 2838 1875 2053 1875 
L 1259 1875 
L 1259 0 
L 628 0 
L 628 4666 
z
" transform="scale(0.015625)"/>
       <path id="DejaVuSans-6f" d="M 1959 3097 
Q 1497 3097 1228 2736 
Q 959 2375 959 1747 
Q 959 1119 1226 758 
Q 1494 397 1959 397 
Q 2419 397 2687 759 
Q 2956 1122 2956 1747 
Q 2956 2369 2687 2733 
Q 2419 3097 1959 3097 
z
M 1959 3584 
Q 2709 3584 3137 3096 
Q 3566 2609 3566 1747 
Q 3566 888 3137 398 
Q 2709 -91 1959 -91 
Q 1206 -91 779 398 
Q 353 888 353 1747 
Q 353 2609 779 3096 
Q 1206 3584 1959 3584 
z
" transform="scale(0.015625)"/>
       <path id="DejaVuSans-69" d="M 603 3500 
L 1178 3500 
L 1178 0 
L 603 0 
L 603 3500 
z
M 603 4863 
L 1178 4863 
L 1178 4134 
L 603 4134 
L 603 4863 
z
" transform="scale(0.015625)"/>
       <path id="DejaVuSans-74" d="M 1172 4494 
L 1172 3500 
L 2356 3500 
L 2356 3053 
L 1172 3053 
L 1172 1153 
Q 1172 725 1289 603 
Q 1406 481 1766 481 
L 2356 481 
L 2356 0 
L 1766 0 
Q 1100 0 847 248 
Q 594 497 594 1153 
L 594 3053 
L 172 3053 
L 172 3500 
L 594 3500 
L 594 4494 
L 1172 4494 
z
" transform="scale(0.015625)"/>
       <path id="DejaVuSans-76" d="M 191 3500 
L 800 3500 
L 1894 563 
L 2988 3500 
L 3597 3500 
L 2284 0 
L 1503 0 
L 191 3500 
z
" transform="scale(0.015625)"/>
       <path id="DejaVuSans-52" d="M 2841 2188 
Q 3044 2119 3236 1894 
Q 3428 1669 3622 1275 
L 4263 0 
L 3584 0 
L 2988 1197 
Q 2756 1666 2539 1819 
Q 2322 1972 1947 1972 
L 1259 1972 
L 1259 0 
L 628 0 
L 628 4666 
L 2053 4666 
Q 2853 4666 3247 4331 
Q 3641 3997 3641 3322 
Q 3641 2881 3436 2590 
Q 3231 2300 2841 2188 
z
M 1259 4147 
L 1259 2491 
L 2053 2491 
Q 2509 2491 2742 2702 
Q 2975 2913 2975 3322 
Q 2975 3731 2742 3939 
Q 2509 4147 2053 4147 
L 1259 4147 
z
" transform="scale(0.015625)"/>
      </defs>
      <use xlink:href="#DejaVuSans-46"/>
      <use xlink:href="#DejaVuSans-61" transform="translate(48.394531 0)"/>
      <use xlink:href="#DejaVuSans-6c" transform="translate(109.673828 0)"/>
      <use xlink:href="#DejaVuSans-73" transform="translate(137.457031 0)"/>
      <use xlink:href="#DejaVuSans-65" transform="translate(189.556641 0)"/>
      <use xlink:href="#DejaVuSans-20" transform="translate(251.080078 0)"/>
      <use xlink:href="#DejaVuSans-50" transform="translate(282.867188 0)"/>
      <use xlink:href="#DejaVuSans-6f" transform="translate(339.544922 0)"/>
      <use xlink:href="#DejaVuSans-73" transform="translate(400.726562 0)"/>
      <use xlink:href="#DejaVuSans-69" transform="translate(452.826172 0)"/>
      <use xlink:href="#DejaVuSans-74" transform="translate(480.609375 0)"/>
      <use xlink:href="#DejaVuSans-69" transform="translate(519.818359 0)"/>
      <use xlink:href="#DejaVuSans-76" transform="translate(547.601562 0)"/>
      <use xlink:href="#DejaVuSans-65" transform="translate(606.78125 0)"/>
      <use xlink:href="#DejaVuSans-20" transform="translate(668.304688 0)"/>
      <use xlink:href="#DejaVuSans-52" transform="translate(700.091797 0)"/>
      <use xlink:href="#DejaVuSans-61" transform="translate(767.324219 0)"/>
      <use xlink:href="#DejaVuSans-74" transform="translate(828.603516 0)"/>
      <use xlink:href="#DejaVuSans-65" transform="translate(867.8125 0)"/>
     </g>
    </g>
   </g>
   <g id="matplotlib.axis_2">
    <g id="ytick_1">
     <g id="line2d_7">
      <defs>
       <path id="m682cbc9607" d="M 0 0 
L -3.5 0 
" style="stroke: #000000; stroke-width: 0.8"/>
      </defs>
      <g>
       <use xlink:href="#m682cbc9607" x="47.72" y="236.078182" style="stroke: #000000; stroke-width: 0.8"/>
      </g>
     </g>
     <g id="text_8">
      <!-- 0.0 -->
      <g transform="translate(24.816875 239.877401) scale(0.1 -0.1)">
       <use xlink:href="#DejaVuSans-30"/>
       <use xlink:href="#DejaVuSans-2e" transform="translate(63.623047 0)"/>
       <use xlink:href="#DejaVuSans-30" transform="translate(95.410156 0)"/>
      </g>
     </g>
    </g>
    <g id="ytick_2">
     <g id="line2d_8">
      <g>
       <use xlink:href="#m682cbc9607" x="47.72" y="196.230909" style="stroke: #000000; stroke-width: 0.8"/>
      </g>
     </g>
     <g id="text_9">
      <!-- 0.2 -->
      <g transform="translate(24.816875 200.030128) scale(0.1 -0.1)">
       <use xlink:href="#DejaVuSans-30"/>
       <use xlink:href="#DejaVuSans-2e" transform="translate(63.623047 0)"/>
       <use xlink:href="#DejaVuSans-32" transform="translate(95.410156 0)"/>
      </g>
     </g>
    </g>
    <g id="ytick_3">
     <g id="line2d_9">
      <g>
       <use xlink:href="#m682cbc9607" x="47.72" y="156.383636" style="stroke: #000000; stroke-width: 0.8"/>
      </g>
     </g>
     <g id="text_10">
      <!-- 0.4 -->
      <g transform="translate(24.816875 160.182855) scale(0.1 -0.1)">
       <use xlink:href="#DejaVuSans-30"/>
       <use xlink:href="#DejaVuSans-2e" transform="translate(63.623047 0)"/>
       <use xlink:href="#DejaVuSans-34" transform="translate(95.410156 0)"/>
      </g>
     </g>
    </g>
    <g id="ytick_4">
     <g id="line2d_10">
      <g>
       <use xlink:href="#m682cbc9607" x="47.72" y="116.536364" style="stroke: #000000; stroke-width: 0.8"/>
      </g>
     </g>
     <g id="text_11">
      <!-- 0.6 -->
      <g transform="translate(24.816875 120.335582) scale(0.1 -0.1)">
       <use xlink:href="#DejaVuSans-30"/>
       <use xlink:href="#DejaVuSans-2e" transform="translate(63.623047 0)"/>
       <use xlink:href="#DejaVuSans-36" transform="translate(95.410156 0)"/>
      </g>
     </g>
    </g>
    <g id="ytick_5">
     <g id="line2d_11">
      <g>
       <use xlink:href="#m682cbc9607" x="47.72" y="76.689091" style="stroke: #000000; stroke-width: 0.8"/>
      </g>
     </g>
     <g id="text_12">
      <!-- 0.8 -->
      <g transform="translate(24.816875 80.48831) scale(0.1 -0.1)">
       <use xlink:href="#DejaVuSans-30"/>
       <use xlink:href="#DejaVuSans-2e" transform="translate(63.623047 0)"/>
       <use xlink:href="#DejaVuSans-38" transform="translate(95.410156 0)"/>
      </g>
     </g>
    </g>
    <g id="ytick_6">
     <g id="line2d_12">
      <g>
       <use xlink:href="#m682cbc9607" x="47.72" y="36.841818" style="stroke: #000000; stroke-width: 0.8"/>
      </g>
     </g>
     <g id="text_13">
      <!-- 1.0 -->
      <g transform="translate(24.816875 40.641037) scale(0.1 -0.1)">
       <use xlink:href="#DejaVuSans-31"/>
       <use xlink:href="#DejaVuSans-2e" transform="translate(63.623047 0)"/>
       <use xlink:href="#DejaVuSans-30" transform="translate(95.410156 0)"/>
      </g>
     </g>
    </g>
    <g id="text_14">
     <!-- True Positive Rate -->
     <g transform="translate(18.737187 180.989687) rotate(-90) scale(0.1 -0.1)">
      <defs>
       <path id="DejaVuSans-54" d="M -19 4666 
L 3928 4666 
L 3928 4134 
L 2272 4134 
L 2272 0 
L 1638 0 
L 1638 4134 
L -19 4134 
L -19 4666 
z
" transform="scale(0.015625)"/>
       <path id="DejaVuSans-72" d="M 2631 2963 
Q 2534 3019 2420 3045 
Q 2306 3072 2169 3072 
Q 1681 3072 1420 2755 
Q 1159 2438 1159 1844 
L 1159 0 
L 581 0 
L 581 3500 
L 1159 3500 
L 1159 2956 
Q 1341 3275 1631 3429 
Q 1922 3584 2338 3584 
Q 2397 3584 2469 3576 
Q 2541 3569 2628 3553 
L 2631 2963 
z
" transform="scale(0.015625)"/>
       <path id="DejaVuSans-75" d="M 544 1381 
L 544 3500 
L 1119 3500 
L 1119 1403 
Q 1119 906 1312 657 
Q 1506 409 1894 409 
Q 2359 409 2629 706 
Q 2900 1003 2900 1516 
L 2900 3500 
L 3475 3500 
L 3475 0 
L 2900 0 
L 2900 538 
Q 2691 219 2414 64 
Q 2138 -91 1772 -91 
Q 1169 -91 856 284 
Q 544 659 544 1381 
z
M 1991 3584 
L 1991 3584 
z
" transform="scale(0.015625)"/>
      </defs>
      <use xlink:href="#DejaVuSans-54"/>
      <use xlink:href="#DejaVuSans-72" transform="translate(46.333984 0)"/>
      <use xlink:href="#DejaVuSans-75" transform="translate(87.447266 0)"/>
      <use xlink:href="#DejaVuSans-65" transform="translate(150.826172 0)"/>
      <use xlink:href="#DejaVuSans-20" transform="translate(212.349609 0)"/>
      <use xlink:href="#DejaVuSans-50" transform="translate(244.136719 0)"/>
      <use xlink:href="#DejaVuSans-6f" transform="translate(300.814453 0)"/>
      <use xlink:href="#DejaVuSans-73" transform="translate(361.996094 0)"/>
      <use xlink:href="#DejaVuSans-69" transform="translate(414.095703 0)"/>
      <use xlink:href="#DejaVuSans-74" transform="translate(441.878906 0)"/>
      <use xlink:href="#DejaVuSans-69" transform="translate(481.087891 0)"/>
      <use xlink:href="#DejaVuSans-76" transform="translate(508.871094 0)"/>
      <use xlink:href="#DejaVuSans-65" transform="translate(568.050781 0)"/>
      <use xlink:href="#DejaVuSans-20" transform="translate(629.574219 0)"/>
      <use xlink:href="#DejaVuSans-52" transform="translate(661.361328 0)"/>
      <use xlink:href="#DejaVuSans-61" transform="translate(728.59375 0)"/>
      <use xlink:href="#DejaVuSans-74" transform="translate(789.873047 0)"/>
      <use xlink:href="#DejaVuSans-65" transform="translate(829.082031 0)"/>
     </g>
    </g>
   </g>
   <g id="line2d_13">
    <path d="M 61.423636 236.078182 
L 61.423636 233.978501 
L 61.744565 233.978501 
L 61.744565 233.511905 
L 62.065493 233.511905 
L 62.065493 229.312544 
L 62.386421 229.312544 
L 62.386421 225.113183 
L 62.707349 225.113183 
L 62.707349 224.413289 
L 63.349206 224.413289 
L 63.349206 223.713396 
L 63.670134 223.713396 
L 63.670134 222.313609 
L 63.991062 222.313609 
L 63.991062 221.613715 
L 64.311991 221.613715 
L 64.311991 220.680524 
L 64.632919 220.680524 
L 64.632919 218.814141 
L 64.953847 218.814141 
L 64.953847 217.88095 
L 65.595704 217.88095 
L 65.595704 217.181056 
L 65.916632 217.181056 
L 65.916632 216.947758 
L 66.23756 216.947758 
L 66.23756 216.014567 
L 66.558488 216.014567 
L 66.558488 215.314673 
L 66.879417 215.314673 
L 66.879417 214.148184 
L 67.200345 214.148184 
L 67.200345 212.515099 
L 67.521273 212.515099 
L 67.521273 211.581908 
L 68.16313 211.581908 
L 68.16313 210.648716 
L 68.484058 210.648716 
L 68.484058 209.248929 
L 68.804986 209.248929 
L 68.804986 207.149248 
L 69.125914 207.149248 
L 69.125914 206.682653 
L 69.446843 206.682653 
L 69.446843 205.982759 
L 69.767771 205.982759 
L 69.767771 205.749461 
L 70.088699 205.749461 
L 70.088699 202.716589 
L 70.409627 202.716589 
L 70.409627 202.483291 
L 71.051484 202.483291 
L 71.051484 202.249994 
L 71.372412 202.249994 
L 71.372412 200.850207 
L 71.69334 200.850207 
L 71.69334 199.917015 
L 72.656125 199.917015 
L 72.656125 199.450419 
L 72.977053 199.450419 
L 72.977053 198.983824 
L 73.61891 198.983824 
L 73.61891 198.750526 
L 73.939838 198.750526 
L 73.939838 198.517228 
L 74.260766 198.517228 
L 74.260766 196.18425 
L 74.581695 196.18425 
L 74.581695 194.784462 
L 75.223551 194.784462 
L 75.223551 191.75159 
L 76.507264 191.75159 
L 76.507264 190.818399 
L 76.828192 190.818399 
L 76.828192 190.351803 
L 77.149121 190.351803 
L 77.149121 189.418612 
L 77.790977 189.418612 
L 77.790977 187.085633 
L 78.432834 187.085633 
L 78.432834 185.685846 
L 79.07469 185.685846 
L 79.07469 185.452548 
L 79.395618 185.452548 
L 79.395618 185.219251 
L 80.037475 185.219251 
L 80.037475 182.886272 
L 80.358403 182.886272 
L 80.358403 181.953081 
L 80.679331 181.953081 
L 80.679331 181.719783 
L 81.00026 181.719783 
L 81.00026 181.019889 
L 81.321188 181.019889 
L 81.321188 179.8534 
L 81.642116 179.8534 
L 81.642116 178.686911 
L 81.963044 178.686911 
L 81.963044 178.453613 
L 82.283973 178.453613 
L 82.283973 177.987017 
L 82.604901 177.987017 
L 82.604901 177.520422 
L 84.209542 177.520422 
L 84.209542 177.053826 
L 84.530471 177.053826 
L 84.530471 175.187443 
L 84.851399 175.187443 
L 84.851399 174.954145 
L 85.493255 174.954145 
L 85.493255 173.32106 
L 85.814184 173.32106 
L 85.814184 172.854465 
L 86.45604 172.854465 
L 86.45604 172.154571 
L 87.418825 172.154571 
L 87.418825 171.687975 
L 87.739753 171.687975 
L 87.739753 170.754784 
L 88.702538 170.754784 
L 88.702538 170.521486 
L 89.344394 170.521486 
L 89.344394 170.288188 
L 89.665323 170.288188 
L 89.665323 169.354997 
L 90.307179 169.354997 
L 90.307179 168.888401 
L 90.949036 168.888401 
L 90.949036 168.421805 
L 91.269964 168.421805 
L 91.269964 168.188508 
L 91.590892 168.188508 
L 91.590892 167.95521 
L 91.91182 167.95521 
L 91.91182 167.488614 
L 92.232749 167.488614 
L 92.232749 167.255316 
L 92.553677 167.255316 
L 92.553677 165.855529 
L 93.195533 165.855529 
L 93.195533 165.388933 
L 94.158318 165.388933 
L 94.158318 165.155636 
L 94.479246 165.155636 
L 94.479246 164.68904 
L 94.800175 164.68904 
L 94.800175 163.989146 
L 95.442031 163.989146 
L 95.442031 162.589359 
L 95.762959 162.589359 
L 95.762959 162.356061 
L 96.083888 162.356061 
L 96.083888 160.722976 
L 96.725744 160.722976 
L 96.725744 159.089891 
L 97.688529 159.089891 
L 97.688529 157.456806 
L 98.009457 157.456806 
L 98.009457 156.523615 
L 98.330385 156.523615 
L 98.330385 156.057019 
L 98.651314 156.057019 
L 98.651314 154.89053 
L 98.972242 154.89053 
L 98.972242 153.957339 
L 99.29317 153.957339 
L 99.29317 153.724041 
L 100.255955 153.724041 
L 100.255955 153.490743 
L 100.576883 153.490743 
L 100.576883 153.257445 
L 101.539668 153.257445 
L 101.539668 152.557552 
L 102.181524 152.557552 
L 102.181524 152.324254 
L 102.823381 152.324254 
L 102.823381 151.857658 
L 103.144309 151.857658 
L 103.144309 151.157765 
L 103.465237 151.157765 
L 103.465237 149.991275 
L 103.786166 149.991275 
L 103.786166 148.824786 
L 104.107094 148.824786 
L 104.107094 148.35819 
L 104.74895 148.35819 
L 104.74895 147.424999 
L 105.069879 147.424999 
L 105.069879 146.725105 
L 105.390807 146.725105 
L 105.390807 146.491808 
L 105.711735 146.491808 
L 105.711735 145.791914 
L 106.353592 145.791914 
L 106.353592 145.325318 
L 106.67452 145.325318 
L 106.67452 145.09202 
L 107.316376 145.09202 
L 107.316376 144.625425 
L 107.637305 144.625425 
L 107.637305 144.158829 
L 107.958233 144.158829 
L 107.958233 143.925531 
L 108.279161 143.925531 
L 108.279161 143.225638 
L 108.600089 143.225638 
L 108.600089 142.759042 
L 108.921018 142.759042 
L 108.921018 142.525744 
L 109.562874 142.525744 
L 109.562874 141.592553 
L 110.846587 141.592553 
L 110.846587 141.359255 
L 111.167515 141.359255 
L 111.167515 141.125957 
L 111.488444 141.125957 
L 111.488444 140.659361 
L 111.809372 140.659361 
L 111.809372 140.426063 
L 112.451228 140.426063 
L 112.451228 139.492872 
L 112.772157 139.492872 
L 112.772157 138.792978 
L 113.093085 138.792978 
L 113.093085 137.859787 
L 113.414013 137.859787 
L 113.414013 137.626489 
L 114.05587 137.626489 
L 114.05587 136.46 
L 115.018654 136.46 
L 115.018654 136.226702 
L 115.660511 136.226702 
L 115.660511 135.760106 
L 115.981439 135.760106 
L 115.981439 135.526809 
L 116.302367 135.526809 
L 116.302367 135.293511 
L 116.623296 135.293511 
L 116.623296 135.060213 
L 117.58608 135.060213 
L 117.58608 131.794043 
L 119.190722 131.794043 
L 119.190722 130.394256 
L 119.832578 130.394256 
L 119.832578 129.461065 
L 120.153506 129.461065 
L 120.153506 129.227767 
L 122.079076 129.227767 
L 122.079076 128.761171 
L 123.041861 128.761171 
L 123.041861 127.82798 
L 123.683717 127.82798 
L 123.683717 127.361384 
L 124.646502 127.361384 
L 124.646502 125.728299 
L 124.96743 125.728299 
L 124.96743 124.795108 
L 125.288359 124.795108 
L 125.288359 123.39532 
L 125.609287 123.39532 
L 125.609287 122.228831 
L 126.251143 122.228831 
L 126.251143 121.995533 
L 126.572072 121.995533 
L 126.572072 120.129151 
L 126.893 120.129151 
L 126.893 119.429257 
L 127.213928 119.429257 
L 127.213928 118.962661 
L 127.534856 118.962661 
L 127.534856 118.729363 
L 128.176713 118.729363 
L 128.176713 118.262768 
L 129.139498 118.262768 
L 129.139498 117.562874 
L 129.460426 117.562874 
L 129.460426 116.629683 
L 129.781354 116.629683 
L 129.781354 115.929789 
L 130.102282 115.929789 
L 130.102282 115.463194 
L 130.423211 115.463194 
L 130.423211 115.229896 
L 131.065067 115.229896 
L 131.065067 114.7633 
L 132.027852 114.7633 
L 132.027852 113.596811 
L 132.34878 113.596811 
L 132.34878 113.363513 
L 132.669708 113.363513 
L 132.669708 112.663619 
L 134.27435 112.663619 
L 134.27435 111.963726 
L 134.595278 111.963726 
L 134.595278 111.263832 
L 136.520847 111.263832 
L 136.520847 111.030534 
L 138.446417 111.030534 
L 138.446417 110.330641 
L 139.088273 110.330641 
L 139.088273 110.097343 
L 140.051058 110.097343 
L 140.051058 109.630747 
L 140.692915 109.630747 
L 140.692915 108.930854 
L 141.013843 108.930854 
L 141.013843 108.697556 
L 141.334771 108.697556 
L 141.334771 108.23096 
L 141.655699 108.23096 
L 141.655699 107.531067 
L 142.297556 107.531067 
L 142.297556 107.297769 
L 143.581269 107.297769 
L 143.581269 107.064471 
L 144.223125 107.064471 
L 144.223125 106.831173 
L 144.864982 106.831173 
L 144.864982 106.364577 
L 145.18591 106.364577 
L 145.18591 106.13128 
L 145.827767 106.13128 
L 145.827767 105.897982 
L 146.469623 105.897982 
L 146.469623 105.664684 
L 146.790551 105.664684 
L 146.790551 105.431386 
L 147.11148 105.431386 
L 147.11148 105.198088 
L 148.074264 105.198088 
L 148.074264 104.498195 
L 148.395193 104.498195 
L 148.395193 104.264897 
L 149.678906 104.264897 
L 149.678906 104.031599 
L 149.999834 104.031599 
L 149.999834 103.098407 
L 150.320762 103.098407 
L 150.320762 102.86511 
L 152.246332 102.86511 
L 152.246332 102.631812 
L 152.56726 102.631812 
L 152.56726 102.165216 
L 153.850973 102.165216 
L 153.850973 101.931918 
L 154.492829 101.931918 
L 154.492829 101.69862 
L 154.813758 101.69862 
L 154.813758 101.465323 
L 155.776542 101.465323 
L 155.776542 100.765429 
L 156.418399 100.765429 
L 156.418399 100.532131 
L 157.381184 100.532131 
L 157.381184 100.298833 
L 158.02304 100.298833 
L 158.02304 100.065535 
L 158.343968 100.065535 
L 158.343968 98.899046 
L 158.664897 98.899046 
L 158.664897 98.665748 
L 158.985825 98.665748 
L 158.985825 97.499259 
L 159.627681 97.499259 
L 159.627681 96.566068 
L 159.94861 96.566068 
L 159.94861 96.33277 
L 160.590466 96.33277 
L 160.590466 96.099472 
L 160.911395 96.099472 
L 160.911395 95.866174 
L 161.553251 95.866174 
L 161.553251 95.166281 
L 162.195108 95.166281 
L 162.195108 93.766494 
L 162.516036 93.766494 
L 162.516036 93.533196 
L 162.836964 93.533196 
L 162.836964 93.299898 
L 163.478821 93.299898 
L 163.478821 93.0666 
L 163.799749 93.0666 
L 163.799749 92.366706 
L 164.120677 92.366706 
L 164.120677 92.133409 
L 164.441605 92.133409 
L 164.441605 91.900111 
L 165.083462 91.900111 
L 165.083462 91.666813 
L 166.046247 91.666813 
L 166.046247 90.500324 
L 166.688103 90.500324 
L 166.688103 90.033728 
L 167.32996 90.033728 
L 167.32996 89.100537 
L 167.650888 89.100537 
L 167.650888 88.633941 
L 167.971816 88.633941 
L 167.971816 88.167345 
L 169.897386 88.167345 
L 169.897386 87.934047 
L 170.218314 87.934047 
L 170.218314 87.700749 
L 171.181099 87.700749 
L 171.181099 87.467452 
L 172.464812 87.467452 
L 172.464812 87.234154 
L 172.78574 87.234154 
L 172.78574 86.53426 
L 173.427596 86.53426 
L 173.427596 85.834367 
L 173.748525 85.834367 
L 173.748525 85.601069 
L 174.069453 85.601069 
L 174.069453 85.367771 
L 175.032238 85.367771 
L 175.032238 84.667877 
L 175.353166 84.667877 
L 175.353166 84.201282 
L 175.674094 84.201282 
L 175.674094 83.967984 
L 177.278735 83.967984 
L 177.278735 83.734686 
L 177.920592 83.734686 
L 177.920592 83.501388 
L 179.846161 83.501388 
L 179.846161 82.801495 
L 180.16709 82.801495 
L 180.16709 82.568197 
L 180.488018 82.568197 
L 180.488018 82.101601 
L 180.808946 82.101601 
L 180.808946 81.635005 
L 181.129874 81.635005 
L 181.129874 81.16841 
L 182.092659 81.16841 
L 182.092659 80.935112 
L 182.413587 80.935112 
L 182.413587 80.468516 
L 183.6973 80.468516 
L 183.6973 80.00192 
L 184.018229 80.00192 
L 184.018229 79.768623 
L 184.981013 79.768623 
L 184.981013 79.302027 
L 185.943798 79.302027 
L 185.943798 79.068729 
L 187.227511 79.068729 
L 187.227511 78.835431 
L 187.869368 78.835431 
L 187.869368 78.602133 
L 188.190296 78.602133 
L 188.190296 78.368835 
L 189.794937 78.368835 
L 189.794937 77.202346 
L 190.115865 77.202346 
L 190.115865 76.969048 
L 190.436794 76.969048 
L 190.436794 76.269155 
L 192.362363 76.269155 
L 192.362363 76.035857 
L 193.325148 76.035857 
L 193.325148 75.802559 
L 193.967004 75.802559 
L 193.967004 75.569261 
L 194.608861 75.569261 
L 194.608861 75.335963 
L 195.250717 75.335963 
L 195.250717 75.102666 
L 196.53443 75.102666 
L 196.53443 74.63607 
L 196.855359 74.63607 
L 196.855359 74.402772 
L 197.176287 74.402772 
L 197.176287 73.702878 
L 197.818143 73.702878 
L 197.818143 73.469581 
L 198.46 73.469581 
L 198.46 73.236283 
L 198.780928 73.236283 
L 198.780928 72.769687 
L 199.101857 72.769687 
L 199.101857 72.303091 
L 200.38557 72.303091 
L 200.38557 71.836496 
L 200.706498 71.836496 
L 200.706498 71.603198 
L 201.990211 71.603198 
L 201.990211 71.3699 
L 202.632067 71.3699 
L 202.632067 71.136602 
L 202.952996 71.136602 
L 202.952996 70.670006 
L 203.594852 70.670006 
L 203.594852 70.436709 
L 204.236709 70.436709 
L 204.236709 70.203411 
L 204.557637 70.203411 
L 204.557637 69.970113 
L 204.878565 69.970113 
L 204.878565 69.270219 
L 205.199493 69.270219 
L 205.199493 68.803624 
L 205.520422 68.803624 
L 205.520422 68.570326 
L 208.408776 68.570326 
L 208.408776 68.337028 
L 209.050632 68.337028 
L 209.050632 68.10373 
L 209.371561 68.10373 
L 209.371561 67.403836 
L 210.334345 67.403836 
L 210.334345 66.703943 
L 210.976202 66.703943 
L 210.976202 66.470645 
L 211.618058 66.470645 
L 211.618058 65.770752 
L 212.259915 65.770752 
L 212.259915 65.537454 
L 213.2227 65.537454 
L 213.2227 65.070858 
L 213.543628 65.070858 
L 213.543628 64.604262 
L 214.827341 64.604262 
L 214.827341 64.137667 
L 215.790126 64.137667 
L 215.790126 63.904369 
L 216.111054 63.904369 
L 216.111054 63.671071 
L 216.431982 63.671071 
L 216.431982 63.204475 
L 218.036623 63.204475 
L 218.036623 62.971177 
L 218.999408 62.971177 
L 218.999408 62.504582 
L 220.924978 62.504582 
L 220.924978 62.271284 
L 222.850547 62.271284 
L 222.850547 62.037986 
L 223.492404 62.037986 
L 223.492404 61.57139 
L 224.776117 61.57139 
L 224.776117 61.338092 
L 225.417973 61.338092 
L 225.417973 60.638199 
L 225.738901 60.638199 
L 225.738901 60.404901 
L 227.022614 60.404901 
L 227.022614 60.171603 
L 227.343543 60.171603 
L 227.343543 59.938305 
L 227.664471 59.938305 
L 227.664471 59.238412 
L 227.985399 59.238412 
L 227.985399 59.005114 
L 228.306327 59.005114 
L 228.306327 58.771816 
L 228.948184 58.771816 
L 228.948184 58.538518 
L 229.59004 58.538518 
L 229.59004 58.071923 
L 230.231897 58.071923 
L 230.231897 57.605327 
L 231.836538 57.605327 
L 231.836538 57.372029 
L 234.083036 57.372029 
L 234.083036 57.138731 
L 235.687677 57.138731 
L 235.687677 56.905433 
L 237.613247 56.905433 
L 237.613247 56.20554 
L 238.89696 56.20554 
L 238.89696 55.738944 
L 241.464386 55.738944 
L 241.464386 55.272348 
L 242.427171 55.272348 
L 242.427171 55.03905 
L 243.069027 55.03905 
L 243.069027 54.805753 
L 243.710884 54.805753 
L 243.710884 53.872561 
L 244.35274 53.872561 
L 244.35274 53.405966 
L 244.994597 53.405966 
L 244.994597 53.172668 
L 245.315525 53.172668 
L 245.315525 52.93937 
L 245.957381 52.93937 
L 245.957381 52.706072 
L 246.920166 52.706072 
L 246.920166 52.472774 
L 247.241094 52.472774 
L 247.241094 52.239476 
L 247.882951 52.239476 
L 247.882951 52.006178 
L 248.524807 52.006178 
L 248.524807 51.772881 
L 248.845736 51.772881 
L 248.845736 51.072987 
L 249.166664 51.072987 
L 249.166664 50.606391 
L 250.129449 50.606391 
L 250.129449 50.373093 
L 250.450377 50.373093 
L 250.450377 49.906498 
L 251.092233 49.906498 
L 251.092233 49.6732 
L 254.301516 49.6732 
L 254.301516 49.206604 
L 254.622444 49.206604 
L 254.622444 48.973306 
L 255.906157 48.973306 
L 255.906157 48.740009 
L 257.18987 48.740009 
L 257.18987 48.506711 
L 259.436368 48.506711 
L 259.436368 48.273413 
L 259.757296 48.273413 
L 259.757296 48.040115 
L 260.078224 48.040115 
L 260.078224 47.806817 
L 261.682866 47.806817 
L 261.682866 47.573519 
L 262.003794 47.573519 
L 262.003794 47.340221 
L 263.287507 47.340221 
L 263.287507 47.106924 
L 264.250292 47.106924 
L 264.250292 46.640328 
L 266.817718 46.640328 
L 266.817718 46.40703 
L 270.668857 46.40703 
L 270.668857 46.173732 
L 271.310713 46.173732 
L 271.310713 45.940434 
L 272.915354 45.940434 
L 272.915354 45.707136 
L 273.236283 45.707136 
L 273.236283 45.473839 
L 275.803709 45.473839 
L 275.803709 45.007243 
L 276.124637 45.007243 
L 276.124637 44.540647 
L 276.445565 44.540647 
L 276.445565 44.307349 
L 279.33392 44.307349 
L 279.33392 44.074052 
L 279.975776 44.074052 
L 279.975776 43.840754 
L 280.296704 43.840754 
L 280.296704 43.607456 
L 280.617633 43.607456 
L 280.617633 43.14086 
L 281.580417 43.14086 
L 281.580417 42.907562 
L 282.543202 42.907562 
L 282.543202 42.674264 
L 284.468772 42.674264 
L 284.468772 41.507775 
L 286.073413 41.507775 
L 286.073413 41.274477 
L 287.036198 41.274477 
L 287.036198 41.041179 
L 291.208265 41.041179 
L 291.208265 40.807882 
L 294.096619 40.807882 
L 294.096619 40.574584 
L 294.738476 40.574584 
L 294.738476 40.341286 
L 295.059404 40.341286 
L 295.059404 40.107988 
L 297.305902 40.107988 
L 297.305902 39.87469 
L 298.910543 39.87469 
L 298.910543 39.641392 
L 300.194256 39.641392 
L 300.194256 39.408095 
L 300.836112 39.408095 
L 300.836112 38.941499 
L 302.761682 38.941499 
L 302.761682 38.708201 
L 305.650036 38.708201 
L 305.650036 38.474903 
L 311.426745 38.474903 
L 311.426745 38.241605 
L 312.068601 38.241605 
L 312.068601 38.008307 
L 314.315099 38.008307 
L 314.315099 37.77501 
L 314.636027 37.77501 
L 314.636027 37.541712 
L 315.598812 37.541712 
L 315.598812 37.308414 
L 326.189444 37.308414 
L 326.189444 37.075116 
L 331.324296 37.075116 
L 331.324296 36.841818 
L 335.496364 36.841818 
L 335.496364 36.841818 
" clip-path="url(#p177643d97d)" style="fill: none; stroke: #1f77b4; stroke-width: 1.5; stroke-linecap: square"/>
   </g>
   <g id="line2d_14">
    <path d="M 61.423636 236.078182 
L 335.496364 36.841818 
" clip-path="url(#p177643d97d)" style="fill: none; stroke-dasharray: 3.7,1.6; stroke-dashoffset: 0; stroke: #808080"/>
   </g>
   <g id="patch_3">
    <path d="M 47.72 246.04 
L 47.72 26.88 
" style="fill: none; stroke: #000000; stroke-width: 0.8; stroke-linejoin: miter; stroke-linecap: square"/>
   </g>
   <g id="patch_4">
    <path d="M 349.2 246.04 
L 349.2 26.88 
" style="fill: none; stroke: #000000; stroke-width: 0.8; stroke-linejoin: miter; stroke-linecap: square"/>
   </g>
   <g id="patch_5">
    <path d="M 47.72 246.04 
L 349.2 246.04 
" style="fill: none; stroke: #000000; stroke-width: 0.8; stroke-linejoin: miter; stroke-linecap: square"/>
   </g>
   <g id="patch_6">
    <path d="M 47.72 26.88 
L 349.2 26.88 
" style="fill: none; stroke: #000000; stroke-width: 0.8; stroke-linejoin: miter; stroke-linecap: square"/>
   </g>
   <g id="text_15">
    <!-- ROC Curve: mBERT_FineTuned -->
    <g transform="translate(107.65 20.88) scale(0.12 -0.12)">
     <defs>
      <path id="DejaVuSans-4f" d="M 2522 4238 
Q 1834 4238 1429 3725 
Q 1025 3213 1025 2328 
Q 1025 1447 1429 934 
Q 1834 422 2522 422 
Q 3209 422 3611 934 
Q 4013 1447 4013 2328 
Q 4013 3213 3611 3725 
Q 3209 4238 2522 4238 
z
M 2522 4750 
Q 3503 4750 4090 4092 
Q 4678 3434 4678 2328 
Q 4678 1225 4090 567 
Q 3503 -91 2522 -91 
Q 1538 -91 948 565 
Q 359 1222 359 2328 
Q 359 3434 948 4092 
Q 1538 4750 2522 4750 
z
" transform="scale(0.015625)"/>
      <path id="DejaVuSans-43" d="M 4122 4306 
L 4122 3641 
Q 3803 3938 3442 4084 
Q 3081 4231 2675 4231 
Q 1875 4231 1450 3742 
Q 1025 3253 1025 2328 
Q 1025 1406 1450 917 
Q 1875 428 2675 428 
Q 3081 428 3442 575 
Q 3803 722 4122 1019 
L 4122 359 
Q 3791 134 3420 21 
Q 3050 -91 2638 -91 
Q 1578 -91 968 557 
Q 359 1206 359 2328 
Q 359 3453 968 4101 
Q 1578 4750 2638 4750 
Q 3056 4750 3426 4639 
Q 3797 4528 4122 4306 
z
" transform="scale(0.015625)"/>
      <path id="DejaVuSans-3a" d="M 750 794 
L 1409 794 
L 1409 0 
L 750 0 
L 750 794 
z
M 750 3309 
L 1409 3309 
L 1409 2516 
L 750 2516 
L 750 3309 
z
" transform="scale(0.015625)"/>
      <path id="DejaVuSans-6d" d="M 3328 2828 
Q 3544 3216 3844 3400 
Q 4144 3584 4550 3584 
Q 5097 3584 5394 3201 
Q 5691 2819 5691 2113 
L 5691 0 
L 5113 0 
L 5113 2094 
Q 5113 2597 4934 2840 
Q 4756 3084 4391 3084 
Q 3944 3084 3684 2787 
Q 3425 2491 3425 1978 
L 3425 0 
L 2847 0 
L 2847 2094 
Q 2847 2600 2669 2842 
Q 2491 3084 2119 3084 
Q 1678 3084 1418 2786 
Q 1159 2488 1159 1978 
L 1159 0 
L 581 0 
L 581 3500 
L 1159 3500 
L 1159 2956 
Q 1356 3278 1631 3431 
Q 1906 3584 2284 3584 
Q 2666 3584 2933 3390 
Q 3200 3197 3328 2828 
z
" transform="scale(0.015625)"/>
      <path id="DejaVuSans-42" d="M 1259 2228 
L 1259 519 
L 2272 519 
Q 2781 519 3026 730 
Q 3272 941 3272 1375 
Q 3272 1813 3026 2020 
Q 2781 2228 2272 2228 
L 1259 2228 
z
M 1259 4147 
L 1259 2741 
L 2194 2741 
Q 2656 2741 2882 2914 
Q 3109 3088 3109 3444 
Q 3109 3797 2882 3972 
Q 2656 4147 2194 4147 
L 1259 4147 
z
M 628 4666 
L 2241 4666 
Q 2963 4666 3353 4366 
Q 3744 4066 3744 3513 
Q 3744 3084 3544 2831 
Q 3344 2578 2956 2516 
Q 3422 2416 3680 2098 
Q 3938 1781 3938 1306 
Q 3938 681 3513 340 
Q 3088 0 2303 0 
L 628 0 
L 628 4666 
z
" transform="scale(0.015625)"/>
      <path id="DejaVuSans-45" d="M 628 4666 
L 3578 4666 
L 3578 4134 
L 1259 4134 
L 1259 2753 
L 3481 2753 
L 3481 2222 
L 1259 2222 
L 1259 531 
L 3634 531 
L 3634 0 
L 628 0 
L 628 4666 
z
" transform="scale(0.015625)"/>
      <path id="DejaVuSans-5f" d="M 3263 -1063 
L 3263 -1509 
L -63 -1509 
L -63 -1063 
L 3263 -1063 
z
" transform="scale(0.015625)"/>
      <path id="DejaVuSans-6e" d="M 3513 2113 
L 3513 0 
L 2938 0 
L 2938 2094 
Q 2938 2591 2744 2837 
Q 2550 3084 2163 3084 
Q 1697 3084 1428 2787 
Q 1159 2491 1159 1978 
L 1159 0 
L 581 0 
L 581 3500 
L 1159 3500 
L 1159 2956 
Q 1366 3272 1645 3428 
Q 1925 3584 2291 3584 
Q 2894 3584 3203 3211 
Q 3513 2838 3513 2113 
z
" transform="scale(0.015625)"/>
      <path id="DejaVuSans-64" d="M 2906 2969 
L 2906 4863 
L 3481 4863 
L 3481 0 
L 2906 0 
L 2906 525 
Q 2725 213 2448 61 
Q 2172 -91 1784 -91 
Q 1150 -91 751 415 
Q 353 922 353 1747 
Q 353 2572 751 3078 
Q 1150 3584 1784 3584 
Q 2172 3584 2448 3432 
Q 2725 3281 2906 2969 
z
M 947 1747 
Q 947 1113 1208 752 
Q 1469 391 1925 391 
Q 2381 391 2643 752 
Q 2906 1113 2906 1747 
Q 2906 2381 2643 2742 
Q 2381 3103 1925 3103 
Q 1469 3103 1208 2742 
Q 947 2381 947 1747 
z
" transform="scale(0.015625)"/>
     </defs>
     <use xlink:href="#DejaVuSans-52"/>
     <use xlink:href="#DejaVuSans-4f" transform="translate(69.482422 0)"/>
     <use xlink:href="#DejaVuSans-43" transform="translate(148.193359 0)"/>
     <use xlink:href="#DejaVuSans-20" transform="translate(218.017578 0)"/>
     <use xlink:href="#DejaVuSans-43" transform="translate(249.804688 0)"/>
     <use xlink:href="#DejaVuSans-75" transform="translate(319.628906 0)"/>
     <use xlink:href="#DejaVuSans-72" transform="translate(383.007812 0)"/>
     <use xlink:href="#DejaVuSans-76" transform="translate(424.121094 0)"/>
     <use xlink:href="#DejaVuSans-65" transform="translate(483.300781 0)"/>
     <use xlink:href="#DejaVuSans-3a" transform="translate(544.824219 0)"/>
     <use xlink:href="#DejaVuSans-20" transform="translate(578.515625 0)"/>
     <use xlink:href="#DejaVuSans-6d" transform="translate(610.302734 0)"/>
     <use xlink:href="#DejaVuSans-42" transform="translate(707.714844 0)"/>
     <use xlink:href="#DejaVuSans-45" transform="translate(776.318359 0)"/>
     <use xlink:href="#DejaVuSans-52" transform="translate(839.501953 0)"/>
     <use xlink:href="#DejaVuSans-54" transform="translate(901.734375 0)"/>
     <use xlink:href="#DejaVuSans-5f" transform="translate(962.818359 0)"/>
     <use xlink:href="#DejaVuSans-46" transform="translate(1012.818359 0)"/>
     <use xlink:href="#DejaVuSans-69" transform="translate(1063.087891 0)"/>
     <use xlink:href="#DejaVuSans-6e" transform="translate(1090.871094 0)"/>
     <use xlink:href="#DejaVuSans-65" transform="translate(1154.25 0)"/>
     <use xlink:href="#DejaVuSans-54" transform="translate(1215.773438 0)"/>
     <use xlink:href="#DejaVuSans-75" transform="translate(1261.732422 0)"/>
     <use xlink:href="#DejaVuSans-6e" transform="translate(1325.111328 0)"/>
     <use xlink:href="#DejaVuSans-65" transform="translate(1388.490234 0)"/>
     <use xlink:href="#DejaVuSans-64" transform="translate(1450.013672 0)"/>
    </g>
   </g>
   <g id="legend_1">
    <g id="patch_7">
     <path d="M 239.33125 241.04 
L 342.2 241.04 
Q 344.2 241.04 344.2 239.04 
L 344.2 225.361875 
Q 344.2 223.361875 342.2 223.361875 
L 239.33125 223.361875 
Q 237.33125 223.361875 237.33125 225.361875 
L 237.33125 239.04 
Q 237.33125 241.04 239.33125 241.04 
z
" style="fill: #ffffff; opacity: 0.8; stroke: #cccccc; stroke-linejoin: miter"/>
    </g>
    <g id="line2d_15">
     <path d="M 241.33125 231.460312 
L 251.33125 231.460312 
L 261.33125 231.460312 
" style="fill: none; stroke: #1f77b4; stroke-width: 1.5; stroke-linecap: square"/>
    </g>
    <g id="text_16">
     <!-- AUC = 0.7377 -->
     <g transform="translate(269.33125 234.960312) scale(0.1 -0.1)">
      <defs>
       <path id="DejaVuSans-41" d="M 2188 4044 
L 1331 1722 
L 3047 1722 
L 2188 4044 
z
M 1831 4666 
L 2547 4666 
L 4325 0 
L 3669 0 
L 3244 1197 
L 1141 1197 
L 716 0 
L 50 0 
L 1831 4666 
z
" transform="scale(0.015625)"/>
       <path id="DejaVuSans-55" d="M 556 4666 
L 1191 4666 
L 1191 1831 
Q 1191 1081 1462 751 
Q 1734 422 2344 422 
Q 2950 422 3222 751 
Q 3494 1081 3494 1831 
L 3494 4666 
L 4128 4666 
L 4128 1753 
Q 4128 841 3676 375 
Q 3225 -91 2344 -91 
Q 1459 -91 1007 375 
Q 556 841 556 1753 
L 556 4666 
z
" transform="scale(0.015625)"/>
       <path id="DejaVuSans-3d" d="M 678 2906 
L 4684 2906 
L 4684 2381 
L 678 2381 
L 678 2906 
z
M 678 1631 
L 4684 1631 
L 4684 1100 
L 678 1100 
L 678 1631 
z
" transform="scale(0.015625)"/>
       <path id="DejaVuSans-37" d="M 525 4666 
L 3525 4666 
L 3525 4397 
L 1831 0 
L 1172 0 
L 2766 4134 
L 525 4134 
L 525 4666 
z
" transform="scale(0.015625)"/>
       <path id="DejaVuSans-33" d="M 2597 2516 
Q 3050 2419 3304 2112 
Q 3559 1806 3559 1356 
Q 3559 666 3084 287 
Q 2609 -91 1734 -91 
Q 1441 -91 1130 -33 
Q 819 25 488 141 
L 488 750 
Q 750 597 1062 519 
Q 1375 441 1716 441 
Q 2309 441 2620 675 
Q 2931 909 2931 1356 
Q 2931 1769 2642 2001 
Q 2353 2234 1838 2234 
L 1294 2234 
L 1294 2753 
L 1863 2753 
Q 2328 2753 2575 2939 
Q 2822 3125 2822 3475 
Q 2822 3834 2567 4026 
Q 2313 4219 1838 4219 
Q 1578 4219 1281 4162 
Q 984 4106 628 3988 
L 628 4550 
Q 988 4650 1302 4700 
Q 1616 4750 1894 4750 
Q 2613 4750 3031 4423 
Q 3450 4097 3450 3541 
Q 3450 3153 3228 2886 
Q 3006 2619 2597 2516 
z
" transform="scale(0.015625)"/>
      </defs>
      <use xlink:href="#DejaVuSans-41"/>
      <use xlink:href="#DejaVuSans-55" transform="translate(68.408203 0)"/>
      <use xlink:href="#DejaVuSans-43" transform="translate(141.601562 0)"/>
      <use xlink:href="#DejaVuSans-20" transform="translate(211.425781 0)"/>
      <use xlink:href="#DejaVuSans-3d" transform="translate(243.212891 0)"/>
      <use xlink:href="#DejaVuSans-20" transform="translate(327.001953 0)"/>
      <use xlink:href="#DejaVuSans-30" transform="translate(358.789062 0)"/>
      <use xlink:href="#DejaVuSans-2e" transform="translate(422.412109 0)"/>
      <use xlink:href="#DejaVuSans-37" transform="translate(454.199219 0)"/>
      <use xlink:href="#DejaVuSans-33" transform="translate(517.822266 0)"/>
      <use xlink:href="#DejaVuSans-37" transform="translate(581.445312 0)"/>
      <use xlink:href="#DejaVuSans-37" transform="translate(645.068359 0)"/>
     </g>
    </g>
   </g>
  </g>
 </g>
 <defs>
  <clipPath id="p177643d97d">
   <rect x="47.72" y="26.88" width="301.48" height="219.16"/>
  </clipPath>
 </defs>
</svg>
